<svg width="22" height="18" viewBox="0 0 22 18" fill="none" xmlns="http://www.w3.org/2000/svg">
<path d="M20.9524 4.6461H22V14.1327H20.9524V16.9787C20.9524 17.5027 20.4834 17.9274 19.9048 17.9274H1.04762C0.46904 17.9274 0 17.5027 0 16.9787V1.8001C0 1.27618 0.46904 0.85144 1.04762 0.85144H19.9048C20.4834 0.85144 20.9524 1.27618 20.9524 1.8001V4.6461ZM18.8571 14.1327H12.5714C9.67855 14.1327 7.33333 12.0091 7.33333 9.38941C7.33333 6.76976 9.67855 4.6461 12.5714 4.6461H18.8571V2.74877H2.09524V16.0301H18.8571V14.1327ZM19.9048 12.2354V6.54342H12.5714C10.8356 6.54342 9.42858 7.81757 9.42858 9.38941C9.42858 10.9613 10.8356 12.2354 12.5714 12.2354H19.9048ZM12.5714 8.44075H15.7143V10.3381H12.5714V8.44075Z" fill="white"/>
</svg>
