<svg width="36" height="36" viewBox="0 0 36 36" fill="none" xmlns="http://www.w3.org/2000/svg">
<rect width="35.8821" height="35.8821" rx="17.9411" fill="#77E7AF"/>
<path d="M15.7202 15.2322L16.986 13.9602L16.986 24.4201C16.986 24.9084 17.3818 25.3042 17.8701 25.3042C18.3584 25.3042 18.7542 24.9084 18.7542 24.4201L18.7542 13.9602L20.0201 15.2322L20.0201 15.2322C20.3645 15.5783 20.9243 15.5796 21.2704 15.2352C21.6165 14.8906 21.6177 14.3309 21.2734 13.9849L21.0252 14.2318L21.2734 13.9849L18.5053 11.2034L18.4968 11.1948L18.4962 11.1942C18.4952 11.1933 18.4943 11.1923 18.4934 11.1915C18.1484 10.8486 17.5914 10.8495 17.2474 11.1909C17.2458 11.1925 17.2441 11.1942 17.2422 11.1961L14.4669 13.9849L14.4669 13.9849C14.1225 14.331 14.1238 14.8907 14.4699 15.2352C14.816 15.5796 15.3757 15.5783 15.7202 15.2322L15.7202 15.2322Z" fill="white" stroke="white" stroke-width="0.700284"/>
</svg>
