<svg width="36" height="36" viewBox="0 0 36 36" fill="none" xmlns="http://www.w3.org/2000/svg">
<rect width="35.88" height="35.88" rx="17.94" fill="#E0706D"/>
<path d="M18.753 22.2766L20.0188 21.0047L20.0188 21.0047C20.3632 20.6587 20.923 20.6573 21.269 21.0018C21.6151 21.3462 21.6164 21.906 21.272 22.252L21.272 22.252L18.4969 25.0406C18.4951 25.0425 18.4934 25.0442 18.4918 25.0457C18.1478 25.3872 17.5907 25.3882 17.2457 25.0453C17.2447 25.0444 17.2438 25.0434 17.2427 25.0424L17.2423 25.042L17.2338 25.0334L14.4659 22.2521L14.7141 22.0051L14.4659 22.2521C14.1216 21.9061 14.1227 21.3463 14.4689 21.0018L18.753 22.2766ZM18.753 22.2766L18.753 11.8174C18.753 11.3291 18.3572 10.9333 17.869 10.9333C17.3807 10.9333 16.9849 11.3291 16.9849 11.8174L16.9849 22.2766L15.7192 21.0048L15.7192 21.0048C15.3747 20.6587 14.815 20.6574 14.4689 21.0018L18.753 22.2766Z" fill="white" stroke="white" stroke-width="0.700284"/>
</svg>
