<svg width="128" height="128" viewBox="0 0 128 128" fill="none" xmlns="http://www.w3.org/2000/svg">
<g clip-path="url(#clip0_4_22246)">
<path d="M63.4105 122.604C93.8514 122.604 118.529 96.8853 118.529 65.1599C118.529 33.4345 93.8514 7.71594 63.4105 7.71594C32.9695 7.71594 8.29224 33.4345 8.29224 65.1599C8.29224 96.8853 32.9695 122.604 63.4105 122.604Z" fill="white"/>
<path d="M63.7703 0.000366211C28.5494 0.000366211 -0.000244141 28.5522 -0.000244141 63.7731C-0.000244141 98.994 28.5494 127.544 63.7703 127.544C98.9912 127.544 127.543 98.9918 127.543 63.7731C127.543 28.5544 98.9912 0.000366211 63.7703 0.000366211ZM59.737 112.5C24.206 114.976 28.9435 66.9558 28.9435 66.9558C66.8432 65.8748 59.737 112.5 59.737 112.5ZM60.383 72.9853C47.678 58.7729 28.9435 57.9116 28.9435 57.9116V23.1343C68.7813 23.453 60.383 72.981 60.383 72.981V72.9853ZM98.5972 23.1343V57.9073C98.5972 57.9073 79.8626 58.7686 67.1576 72.981C67.1576 72.981 58.7594 23.453 98.5972 23.1343ZM67.8036 112.5C67.8036 112.5 60.6974 65.8748 98.5972 66.9515C98.5972 66.9515 103.335 114.972 67.8036 112.5Z" fill="url(#paint0_linear_4_22246)"/>
</g>
<defs>
<linearGradient id="paint0_linear_4_22246" x1="16.8371" y1="21.5709" x2="111.679" y2="106.852" gradientUnits="userSpaceOnUse">
<stop stop-color="#F2558E"/>
<stop offset="1" stop-color="#F86971"/>
</linearGradient>
<clipPath id="clip0_4_22246">
<rect width="127.543" height="127.543" fill="white"/>
</clipPath>
</defs>
</svg>
