<svg width="21" height="21" viewBox="0 0 21 21" fill="none" xmlns="http://www.w3.org/2000/svg">
<g clip-path="url(#clip0_4_22115)">
<path d="M16.5718 11.6671C16.6055 11.3976 16.6307 11.1281 16.6307 10.8418C16.6307 10.5555 16.6055 10.286 16.5718 10.0166L18.3486 8.62709C18.5086 8.50078 18.5507 8.27341 18.4497 8.08814L16.7655 5.17446C16.6897 5.03972 16.5465 4.96393 16.3949 4.96393C16.3444 4.96393 16.2939 4.97236 16.2518 4.9892L14.1549 5.8313C13.7171 5.49446 13.2455 5.21657 12.7318 5.00604L12.4118 2.77446C12.3865 2.57236 12.2097 2.42078 11.9992 2.42078H8.63074C8.42021 2.42078 8.24337 2.57236 8.21811 2.77446L7.89811 5.00604C7.38442 5.21657 6.91284 5.50288 6.47495 5.8313L4.37811 4.9892C4.32758 4.97236 4.27705 4.96393 4.22653 4.96393C4.08337 4.96393 3.94021 5.03972 3.86442 5.17446L2.18021 8.08814C2.07074 8.27341 2.12126 8.50078 2.28126 8.62709L4.05811 10.0166C4.02442 10.286 3.99916 10.5639 3.99916 10.8418C3.99916 11.1197 4.02442 11.3976 4.05811 11.6671L2.28126 13.0566C2.12126 13.1829 2.07916 13.4102 2.18021 13.5955L3.86442 16.5092C3.94021 16.6439 4.08337 16.7197 4.23495 16.7197C4.28547 16.7197 4.336 16.7113 4.37811 16.6945L6.47495 15.8524C6.91284 16.1892 7.38442 16.4671 7.89811 16.6776L8.21811 18.9092C8.24337 19.1113 8.42021 19.2629 8.63074 19.2629H11.9992C12.2097 19.2629 12.3865 19.1113 12.4118 18.9092L12.7318 16.6776C13.2455 16.4671 13.7171 16.1808 14.1549 15.8524L16.2518 16.6945C16.3023 16.7113 16.3528 16.7197 16.4034 16.7197C16.5465 16.7197 16.6897 16.6439 16.7655 16.5092L18.4497 13.5955C18.5507 13.4102 18.5086 13.1829 18.3486 13.0566L16.5718 11.6671ZM14.9044 10.2271C14.9381 10.4881 14.9465 10.665 14.9465 10.8418C14.9465 11.0187 14.9297 11.2039 14.9044 11.4566L14.7865 12.4081L15.536 12.9976L16.4455 13.705L15.856 14.7239L14.7865 14.2945L13.9107 13.9408L13.1528 14.5134C12.7907 14.7829 12.4455 14.985 12.1002 15.1281L11.2076 15.4902L11.0728 16.4418L10.9044 17.5787H9.72547L9.56547 16.4418L9.43074 15.4902L8.53811 15.1281C8.176 14.9766 7.83916 14.7829 7.50232 14.5302L6.736 13.9408L5.84337 14.3029L4.7739 14.7324L4.18442 13.7134L5.0939 13.006L5.84337 12.4166L5.72547 11.465C5.70021 11.2039 5.68337 11.0102 5.68337 10.8418C5.68337 10.6734 5.70021 10.4797 5.72547 10.2271L5.84337 9.27551L5.0939 8.68604L4.18442 7.97867L4.7739 6.95972L5.84337 7.3892L6.71916 7.74288L7.47705 7.17025C7.83916 6.90078 8.18442 6.69867 8.52969 6.55551L9.42232 6.19341L9.55705 5.24183L9.72547 4.10499H10.896L11.056 5.24183L11.1907 6.19341L12.0834 6.55551C12.4455 6.70709 12.7823 6.90078 13.1192 7.15341L13.8855 7.74288L14.7781 7.38078L15.8476 6.9513L16.4371 7.97025L15.536 8.68604L14.7865 9.27551L14.9044 10.2271ZM10.3149 7.47341C8.4539 7.47341 6.94653 8.98078 6.94653 10.8418C6.94653 12.7029 8.4539 14.2102 10.3149 14.2102C12.176 14.2102 13.6834 12.7029 13.6834 10.8418C13.6834 8.98078 12.176 7.47341 10.3149 7.47341ZM10.3149 12.526C9.38863 12.526 8.63074 11.7681 8.63074 10.8418C8.63074 9.91551 9.38863 9.15762 10.3149 9.15762C11.2413 9.15762 11.9992 9.91551 11.9992 10.8418C11.9992 11.7681 11.2413 12.526 10.3149 12.526Z" fill="white"/>
</g>
<defs>
<clipPath id="clip0_4_22115">
<rect width="20.2105" height="20.2105" fill="white" transform="translate(0.210693 0.736694)"/>
</clipPath>
</defs>
</svg>
