<svg width="11" height="12" viewBox="0 0 11 12" fill="none" xmlns="http://www.w3.org/2000/svg">
<circle cx="5.42323" cy="6.28358" r="5.42323" fill="#F32682"/>
<path d="M10.8465 6.28358C10.8465 7.53828 10.4114 8.75415 9.61545 9.72404C8.81948 10.6939 7.71183 11.3578 6.48125 11.6026C5.25067 11.8474 3.97328 11.6579 2.86674 11.0664C1.7602 10.475 0.892969 9.51815 0.412819 8.35896C-0.0673313 7.19978 -0.130696 5.90997 0.233522 4.7093C0.59774 3.50864 1.36701 2.4714 2.41024 1.77433C3.45348 1.07726 4.70615 0.763485 5.9548 0.886466C7.20345 1.00945 8.37083 1.56158 9.25803 2.44878L5.42323 6.28358H10.8465Z" fill="#C7157A"/>
<path d="M10.8465 6.28358C10.8465 7.3562 10.5284 8.40472 9.93248 9.29657C9.33657 10.1884 8.48958 10.8835 7.49861 11.294C6.50765 11.7045 5.41721 11.8119 4.36521 11.6026C3.31321 11.3934 2.34688 10.8768 1.58843 10.1184L5.42323 6.28358H10.8465Z" fill="#F26200"/>
</svg>
