<svg width="62" height="62" viewBox="0 0 62 62" fill="none" xmlns="http://www.w3.org/2000/svg">
<rect width="62" height="62" fill="#1E1E1E"/>
<g id="coneect account">
<rect x="-1078" y="-332" width="1440" height="1024" rx="16" fill="#121212"/>
<g id="Rectangle 21" filter="url(#filter0_i_0_1)">
<rect x="-551" y="-43" width="644" height="327" rx="13" fill="#1D1D1D" fill-opacity="0.45"/>
</g>
<g id="Group 153">
<g id="fingerprint-2-line">
<path id="Vector" d="M31 2.58337C43.8407 2.58337 54.25 12.9928 54.25 25.8334V36.1667C54.25 49.0074 43.8407 59.4167 31 59.4167C28.1937 59.4167 25.5037 58.9197 23.013 58.0085C23.344 57.5521 23.6617 57.0858 23.9657 56.6097L24.4069 55.8853C26.8357 51.831 28.2774 47.1177 28.4071 42.0784L28.4167 41.3334V23.25H33.5833V41.3334C33.5833 45.9121 32.667 50.2766 31.008 54.2539C33.0548 54.25 35.0297 53.9072 36.8704 53.2759C38.013 49.7592 38.6622 46.0216 38.7417 42.144L38.75 41.3334L38.7495 33.5808H43.9161L43.9167 41.3334C43.9167 44.1453 43.6524 46.8955 43.1474 49.5605C46.6506 46.3843 48.9017 41.85 49.0727 36.7885L49.0833 36.1667V25.8334C49.0833 15.8462 40.9872 7.75004 31 7.75004C26.9382 7.75004 23.189 9.08927 20.1701 11.3503L16.489 7.66657C20.4663 4.48551 25.511 2.58337 31 2.58337ZM18.0833 25.8334C18.0833 18.6997 23.8663 12.9167 31 12.9167C38.1336 12.9167 43.9167 18.6997 43.9167 25.8334V28.4167H38.75V25.8334C38.75 21.5532 35.2803 18.0834 31 18.0834C26.8726 18.0834 23.4989 21.3098 23.2631 25.378L23.25 25.8334V41.3334C23.25 45.3812 22.2156 49.1872 20.3968 52.5019L20.3364 52.6037C19.744 53.6742 19.0672 54.692 18.3168 55.6494C17.1779 54.9075 16.1081 54.0684 15.1193 53.1441L14.3233 52.367C10.2547 48.1792 7.75 42.4654 7.75 36.1667V25.8334C7.75 20.3444 9.65213 15.2996 12.8332 11.3223L16.5169 15.0035C14.3717 17.8677 13.0563 21.3893 12.9272 25.2117L12.9167 25.8334V36.1667C12.9167 40.4933 14.4361 44.4649 16.9704 47.577C17.6245 45.8157 18.0063 43.9255 18.0728 41.9552L18.0833 41.3334V25.8334Z" fill="#8A8888" fill-opacity="0.73"/>
</g>
</g>
</g>
<defs>
<filter id="filter0_i_0_1" x="-551" y="-43" width="644" height="331" filterUnits="userSpaceOnUse" color-interpolation-filters="sRGB">
<feFlood flood-opacity="0" result="BackgroundImageFix"/>
<feBlend mode="normal" in="SourceGraphic" in2="BackgroundImageFix" result="shape"/>
<feColorMatrix in="SourceAlpha" type="matrix" values="0 0 0 0 0 0 0 0 0 0 0 0 0 0 0 0 0 0 127 0" result="hardAlpha"/>
<feOffset dy="4"/>
<feGaussianBlur stdDeviation="25"/>
<feComposite in2="hardAlpha" operator="arithmetic" k2="-1" k3="1"/>
<feColorMatrix type="matrix" values="0 0 0 0 0.14902 0 0 0 0 0.14902 0 0 0 0 0.14902 0 0 0 1 0"/>
<feBlend mode="normal" in2="shape" result="effect1_innerShadow_0_1"/>
</filter>
</defs>
</svg>
